<svg xmlns="http://www.w3.org/2000/svg" viewBox="0 0 300 300"><style>.tooth-outer {fill:#0f3015;} .tooth-inner {fill:#40cc50;} .tooth-detail {fill:white;} .text {font-family: Arial, sans-serif; font-weight: bold; fill: #2c8736;}</style><circle cx="150" cy="150" r="140" fill="#0f3015"/><circle cx="150" cy="150" r="125" fill="#40cc50"/><path d="M150,80c40,0,60,30,60,60v40c0,10-5,15-15,15h-90c-10,0-15-5-15-15v-40C90,110,110,80,150,80z" fill="#ffffff"/><path d="M150,100c30,0,40,20,40,40v20c0,5-3,10-10,10h-60c-7,0-10-5-10-10v-20C110,120,120,100,150,100z" fill="#40cc50"/><path d="M130,140v-10c0-5,10-5,8-10h-16c-5,0-5,5,5,10v10z" fill="#ffffff"/><path d="M170,140v-10c0-5-10-5-8-10h16c5,0,5,5-5,10v10z" fill="#ffffff"/><text x="50" y="220" font-size="30" class="text">DENTAMIND</text><text x="70" y="250" font-size="18" class="text">AI DENTAL EXCELLANCE</text></svg>