<svg xmlns="http://www.w3.org/2000/svg" viewBox="0 0 512 512">
  <!-- Main Tooth Shape -->
  <path d="M256,60c-80,0-140,50-140,130c0,40,10,80,30,120c20,40,40,80,60,110c10,15,20,20,50,20c30,0,40-5,50-20c20-30,40-70,60-110c20-40,30-80,30-120C396,110,336,60,256,60z" fill="#ffffff" stroke="#2563EB" stroke-width="15"/>
  
  <!-- Inner Tooth Details -->
  <path d="M256,120c-50,0-90,30-90,80c0,30,10,60,20,90" fill="none" stroke="#2563EB" stroke-width="8" stroke-linecap="round"/>
  
  <!-- Dental Loupes (magnifying glasses) -->
  <circle cx="210" cy="150" r="25" fill="none" stroke="#2563EB" stroke-width="6"/>
  <circle cx="290" cy="150" r="25" fill="none" stroke="#2563EB" stroke-width="6"/>
  
  <!-- Bridge connecting the loupes -->
  <path d="M210,125 L290,125" fill="none" stroke="#2563EB" stroke-width="6"/>
  
  <!-- Arms of the loupes -->
  <path d="M185,150 L160,170" fill="none" stroke="#2563EB" stroke-width="6"/>
  <path d="M315,150 L340,170" fill="none" stroke="#2563EB" stroke-width="6"/>
  
  <!-- Brain/AI circuit pattern -->
  <circle cx="256" cy="240" r="8" fill="#3B82F6"/>
  <circle cx="226" cy="220" r="6" fill="#3B82F6"/>
  <circle cx="286" cy="220" r="6" fill="#3B82F6"/>
  <circle cx="236" cy="270" r="6" fill="#3B82F6"/>
  <circle cx="276" cy="270" r="6" fill="#3B82F6"/>
  
  <line x1="256" y1="240" x2="226" y2="220" stroke="#3B82F6" stroke-width="3"/>
  <line x1="256" y1="240" x2="286" y2="220" stroke="#3B82F6" stroke-width="3"/>
  <line x1="256" y1="240" x2="236" y2="270" stroke="#3B82F6" stroke-width="3"/>
  <line x1="256" y1="240" x2="276" y2="270" stroke="#3B82F6" stroke-width="3"/>
  <line x1="226" y1="220" x2="286" y2="220" stroke="#3B82F6" stroke-width="3"/>
  <line x1="236" y1="270" x2="276" y2="270" stroke="#3B82F6" stroke-width="3"/>
</svg>