<svg xmlns="http://www.w3.org/2000/svg" viewBox="0 0 512 512">
  <!-- Main Tooth Shape -->
  <path d="M256,60c-80,0-140,50-140,130c0,40,10,80,30,120c20,40,40,80,60,110c10,15,20,20,50,20c30,0,40-5,50-20c20-30,40-70,60-110c20-40,30-80,30-120C396,110,336,60,256,60z" fill="#ffffff" stroke="#0078D7" stroke-width="15"/>
  
  <!-- Inner Tooth Details -->
  <path d="M256,120c-50,0-90,30-90,80c0,30,10,60,20,90" fill="none" stroke="#0078D7" stroke-width="8" stroke-linecap="round"/>
  
  <!-- Stethoscope -->
  <circle cx="160" cy="180" r="25" fill="#00B0F0" stroke="#0078D7" stroke-width="6"/>
  <path d="M160,205c0,0,0,60,40,80c40,20,100,20,130-10c30-30,30-90,10-120" fill="none" stroke="#00B0F0" stroke-width="12" stroke-linecap="round"/>
  <path d="M160,180c0,0-40-30-40-70s40-40,40-40" fill="none" stroke="#00B0F0" stroke-width="12" stroke-linecap="round"/>
  
  <!-- AI Circuit Pattern -->
  <circle cx="296" cy="140" r="8" fill="#0078D7"/>
  <circle cx="336" cy="180" r="8" fill="#0078D7"/>
  <circle cx="296" cy="220" r="8" fill="#0078D7"/>
  <line x1="296" y1="140" x2="336" y2="180" stroke="#0078D7" stroke-width="4"/>
  <line x1="336" y1="180" x2="296" y2="220" stroke="#0078D7" stroke-width="4"/>
  <line x1="296" y1="140" x2="296" y2="220" stroke="#0078D7" stroke-width="4"/>
</svg>