<?xml version="1.0" encoding="UTF-8" standalone="no"?>
<svg xmlns="http://www.w3.org/2000/svg" viewBox="0 0 500 500" width="100%" height="100%">
  <!-- DentaMind face logo with tooth -->
  <g>
    <!-- Dotted circular background -->
    <circle cx="250" cy="250" r="200" fill="none" stroke="#6DE686" stroke-width="2" stroke-dasharray="3,3"/>
    
    <!-- Face shape -->
    <path d="M250,450 C150,400 100,300 100,200 C100,100 150,50 250,50 C350,50 400,100 400,200 C400,300 350,400 250,450 Z" fill="#6DE686" fill-opacity="0.8"/>
    
    <!-- Tooth in forehead -->
    <path d="M250,80 C280,80 310,100 320,130 C330,160 320,190 310,210 C300,230 275,250 250,250 C225,250 200,230 190,210 C180,190 170,160 180,130 C190,100 220,80 250,80 Z" fill="white" stroke="#6DE686" stroke-width="2"/>
    <path d="M250,80 C235,80 220,90 215,110 C210,130 210,145 225,180 C230,190 240,200 250,200 C260,200 270,190 275,180 C290,145 290,130 285,110 C280,90 265,80 250,80 Z" fill="none" stroke="#6DE686" stroke-width="2"/>
    
    <!-- Eyes -->
    <ellipse cx="200" cy="270" rx="30" ry="10" fill="white"/>
    <ellipse cx="300" cy="270" rx="30" ry="10" fill="white"/>
    
    <!-- Mouth -->
    <path d="M200,350 C230,370 270,370 300,350" fill="none" stroke="white" stroke-width="5" stroke-linecap="round"/>
    
    <!-- Circuit elements on sides -->
    <path d="M150,300 L180,300 L180,320 L190,320" fill="none" stroke="#333" stroke-width="2"/>
    <path d="M350,300 L320,300 L320,320 L310,320" fill="none" stroke="#333" stroke-width="2"/>
    <circle cx="190" cy="320" r="3" fill="#333"/>
    <circle cx="310" cy="320" r="3" fill="#333"/>
  </g>
</svg> 