<?xml version="1.0" encoding="UTF-8" standalone="no"?>
<svg xmlns="http://www.w3.org/2000/svg" xmlns:xlink="http://www.w3.org/1999/xlink" width="320" height="80" viewBox="0 0 320 80">
  <style>
    .logo-text { 
      font-family: Arial, sans-serif; 
      font-weight: bold;
      fill: #3B82F6;
    }
    .subtitle {
      font-family: Arial, sans-serif;
      fill: #64748B;
      font-size: 14px;
    }
  </style>
  
  <!-- Logo Container -->
  <g>
    <!-- Tooth shape -->
    <path d="M35,10 C45,10 53,16 53,28 C53,36 48,42 48,50 C48,53 46,56 44,56 C42,56 40,53 39,48 C38,43 37,40 35,40 C33,40 32,43 31,48 C30,53 28,56 26,56 C24,56 22,53 22,50 C22,42 17,36 17,28 C17,16 25,10 35,10 Z" 
          fill="#3B82F6" stroke="#2563EB" stroke-width="1.5" />
  
    <!-- Stethoscope -->
    <path d="M15,25 C10,20 8,18 8,14 C8,10 12,8 15,10 C18,12 18,14 20,18 L24,22" 
          fill="none" stroke="#1E40AF" stroke-width="2" stroke-linecap="round" />
    <circle cx="8" cy="14" r="3" fill="#1E40AF" />
    
    <!-- Stethoscope chest piece -->
    <circle cx="24" cy="22" r="4" fill="#1E40AF" stroke="#1E3A8A" stroke-width="1" />
    
    <!-- Text -->
    <text x="70" y="32" class="logo-text" font-size="30">SmartDental AI</text>
    <text x="70" y="50" class="subtitle">AI-Powered Care</text>
  </g>
</svg>