<?xml version="1.0" encoding="UTF-8" standalone="no"?>
<svg xmlns="http://www.w3.org/2000/svg" xmlns:xlink="http://www.w3.org/1999/xlink" width="240" height="120" viewBox="0 0 240 120">
  <defs>
    <linearGradient id="gradient" x1="0%" y1="0%" x2="100%" y2="100%">
      <stop offset="0%" stop-color="#1e40af" /> <!-- Deep blue -->
      <stop offset="100%" stop-color="#0ea5e9" /> <!-- Cyan blue -->
    </linearGradient>
  </defs>
  
  <!-- Tooth shape -->
  <path d="M120,20 C140,20 155,30 155,50 C155,65 145,75 145,90 C145,95 142,100 138,100 C134,100 132,95 130,85 C128,75 125,70 120,70 C115,70 112,75 110,85 C108,95 106,100 102,100 C98,100 95,95 95,90 C95,75 85,65 85,50 C85,30 100,20 120,20 Z" 
        fill="url(#gradient)" stroke="#0369a1" stroke-width="2" />
  
  <!-- Stethoscope -->
  <path d="M80,50 C70,40 65,35 65,25 C65,15 75,10 80,15 C85,20 85,25 90,35 L100,45" 
        fill="none" stroke="#0c4a6e" stroke-width="4" stroke-linecap="round" />
  <circle cx="65" cy="25" r="6" fill="#0c4a6e" />
  
  <!-- Stethoscope chest piece -->
  <circle cx="100" cy="45" r="8" fill="#0c4a6e" stroke="#075985" stroke-width="2" />
  
  <!-- DentaMind text -->
  <text x="120" y="115" font-family="Arial, sans-serif" font-size="14" font-weight="bold" text-anchor="middle" fill="#0c4a6e">DentaMind</text>
</svg>