<svg width="192" height="192" viewBox="0 0 192 192" fill="none" xmlns="http://www.w3.org/2000/svg">
  <circle cx="96" cy="96" r="96" fill="#0d0d0d"/>
  <path d="M96 72C114.557 72 129.6 58.5685 129.6 42C129.6 25.4315 114.557 12 96 12C77.4431 12 62.4 25.4315 62.4 42C62.4 58.5685 77.4431 72 96 72Z" fill="#65FF65"/>
  <path d="M86.4 42C86.4 49.9528 90.6981 56.4 96 56.4C101.302 56.4 105.6 49.9528 105.6 42C105.6 34.0472 101.302 27.6 96 27.6C90.6981 27.6 86.4 34.0472 86.4 42Z" fill="white"/>
  <path d="M48 96C48 117.208 69.4904 134.4 96 134.4C122.51 134.4 144 117.208 144 96C144 74.7919 122.51 57.6 96 57.6C69.4904 57.6 48 74.7919 48 96Z" fill="#65FF65"/>
  <path d="M67.2 96C67.2 106.604 80.0939 115.2 96 115.2C111.906 115.2 124.8 106.604 124.8 96C124.8 85.3964 111.906 76.8 96 76.8C80.0939 76.8 67.2 85.3964 67.2 96Z" fill="#0d0d0d"/>
  <path d="M86.4 153.6C86.4 166.855 90.6981 177.6 96 177.6C101.302 177.6 105.6 166.855 105.6 153.6C105.6 140.345 101.302 129.6 96 129.6C90.6981 129.6 86.4 140.345 86.4 153.6Z" fill="#65FF65"/>
  
  <!-- Central circuit pattern -->
  <path d="M96 139.2V148.8" stroke="#65FF65" stroke-width="2"/>
  <path d="M105.6 134.4H115.2" stroke="#65FF65" stroke-width="2"/>
  <path d="M76.8 134.4H86.4" stroke="#65FF65" stroke-width="2"/>
  
  <!-- Light dots around the edge -->
  <circle cx="48" cy="96" r="2" fill="#65FF65" opacity="0.6"/>
  <circle cx="144" cy="96" r="2" fill="#65FF65" opacity="0.6"/>
  <circle cx="96" cy="48" r="2" fill="#65FF65" opacity="0.6"/>
  <circle cx="96" cy="144" r="2" fill="#65FF65" opacity="0.6"/>
  
  <!-- Additional subtle circuit patterns -->
  <path d="M56 84L64 92" stroke="#65FF65" stroke-width="1" opacity="0.8"/>
  <path d="M56 108L64 100" stroke="#65FF65" stroke-width="1" opacity="0.8"/>
  <path d="M136 84L128 92" stroke="#65FF65" stroke-width="1" opacity="0.8"/>
  <path d="M136 108L128 100" stroke="#65FF65" stroke-width="1" opacity="0.8"/>
</svg> 