<?xml version="1.0" encoding="UTF-8" standalone="no"?>
<svg width="800" height="300" xmlns="http://www.w3.org/2000/svg">
  <title>Panoramic X-ray 2024</title>
  <!-- Background that simulates an X-ray film -->
  <rect width="800" height="300" fill="#1a1a1a" />
  
  <!-- Stylized Jaw Structure - 2024 -->
  <g id="jaw-structure" fill="none" stroke="#e0e0e0" stroke-width="0.7">
    <!-- Jaw outline -->
    <path d="M100,150 C200,220 600,220 700,150 C650,100 550,90 400,90 C250,90 150,100 100,150 Z" />
    
    <!-- Teeth outlines - upper -->
    <g id="upper-teeth">
      <path d="M160,110 C163,100 173,100 176,110" />
      <path d="M190,105 C193,95 203,95 206,105" />
      <path d="M220,100 C223,90 233,90 236,100" />
      <path d="M250,97 C253,87 263,87 266,97" />
      <path d="M280,95 C283,85 293,85 296,95" />
      <path d="M310,94 C313,84 323,84 326,94" />
      <path d="M340,94 C343,84 353,84 356,94" />
      <path d="M370,95 C373,85 383,85 386,95" />
      <path d="M400,95 C403,85 413,85 416,95" />
      <path d="M430,95 C433,85 443,85 446,95" />
      <path d="M460,97 C463,87 473,87 476,97" />
      <path d="M490,100 C493,90 503,90 506,100" />
      <path d="M520,105 C523,95 533,95 536,105" />
      <path d="M550,110 C553,100 563,100 566,110" />
      <path d="M580,115 C583,105 593,105 596,115" />
      <path d="M610,120 C613,110 623,110 626,120" />
    </g>
    
    <!-- Teeth outlines - lower -->
    <g id="lower-teeth">
      <path d="M160,180 C163,190 173,190 176,180" />
      <path d="M190,185 C193,195 203,195 206,185" />
      <path d="M220,188 C223,198 233,198 236,188" />
      <path d="M250,190 C253,200 263,200 266,190" />
      <path d="M280,191 C283,201 293,201 296,191" />
      <path d="M310,192 C313,202 323,202 326,192" />
      <path d="M340,192 C343,202 353,202 356,192" />
      <path d="M370,191 C373,201 383,201 386,191" />
      <path d="M400,191 C403,201 413,201 416,191" />
      <path d="M430,191 C433,201 443,201 446,191" />
      <path d="M460,190 C463,200 473,200 476,190" />
      <path d="M490,188 C493,198 503,198 506,188" />
      <path d="M520,185 C523,195 533,195 536,185" />
      <path d="M550,180 C553,190 563,190 566,180" />
      <path d="M580,175 C583,185 593,185 596,175" />
      <path d="M610,170 C613,180 623,180 626,170" />
    </g>
    
    <!-- Posterior regions with bone levels unchanged from 2023 -->
    <path d="M280,95 C290,85 300,94 310,94" stroke="#a0a0a0" stroke-width="0.8" />
    <path d="M490,100 C500,95 510,97 520,105" stroke="#a0a0a0" stroke-width="0.8" />
    
    <!-- Improved periapical area of tooth #9 (compared to 2023) -->
    <circle cx="370" cy="75" r="5" stroke="#b0b0b0" stroke-width="0.3" stroke-dasharray="2,1" fill="none" />
    
    <!-- A restoration at tooth #14 (2nd molar) -->
    <path d="M520,100 L536,100 L528,105 Z" stroke="#ffffff" stroke-width="0.4" fill="#d0d0d0" fill-opacity="0.2" />
  </g>
  
  <!-- Text annotations -->
  <text x="400" y="30" font-family="Arial" font-size="16" fill="white" text-anchor="middle">Panoramic X-ray (2024-02-20)</text>
  <text x="400" y="275" font-family="Arial" font-size="12" fill="#cccccc" text-anchor="middle">Patient: John Smith - Dr. Johnson</text>
</svg>