<svg width="32" height="32" viewBox="0 0 32 32" fill="none" xmlns="http://www.w3.org/2000/svg">
  <circle cx="16" cy="16" r="16" fill="#0d0d0d"/>
  <path d="M16 12C19.0928 12 21.6 9.76142 21.6 7C21.6 4.23858 19.0928 2 16 2C12.9072 2 10.4 4.23858 10.4 7C10.4 9.76142 12.9072 12 16 12Z" fill="#65FF65"/>
  <path d="M14.4 7C14.4 8.32548 15.1163 9.4 16 9.4C16.8837 9.4 17.6 8.32548 17.6 7C17.6 5.67452 16.8837 4.6 16 4.6C15.1163 4.6 14.4 5.67452 14.4 7Z" fill="white"/>
  <path d="M8 16C8 19.5346 11.5817 22.4 16 22.4C20.4183 22.4 24 19.5346 24 16C24 12.4654 20.4183 9.6 16 9.6C11.5817 9.6 8 12.4654 8 16Z" fill="#65FF65"/>
  <path d="M11.2 16C11.2 17.7673 13.349 19.2 16 19.2C18.651 19.2 20.8 17.7673 20.8 16C20.8 14.2327 18.651 12.8 16 12.8C13.349 12.8 11.2 14.2327 11.2 16Z" fill="#0d0d0d"/>
  <path d="M14.4 25.6C14.4 27.8091 15.1163 29.6 16 29.6C16.8837 29.6 17.6 27.8091 17.6 25.6C17.6 23.3909 16.8837 21.6 16 21.6C15.1163 21.6 14.4 23.3909 14.4 25.6Z" fill="#65FF65"/>
</svg> 